<svg width="24" height="24" viewBox="0 0 24 24" fill="none" xmlns="http://www.w3.org/2000/svg">
<path d="M9.60957 7.31235C9.43706 7.09672 9.47202 6.78207 9.68765 6.60957C9.90328 6.43706 10.2179 6.47202 10.3904 6.68765L9.60957 7.31235ZM14 12L14.3904 11.6877C14.5365 11.8703 14.5365 12.1297 14.3904 12.3123L14 12ZM10.3904 17.3123C10.2179 17.528 9.90328 17.5629 9.68765 17.3904C9.47202 17.2179 9.43706 16.9033 9.60957 16.6877L10.3904 17.3123ZM10.3904 6.68765L14.3904 11.6877L13.6096 12.3123L9.60957 7.31235L10.3904 6.68765ZM14.3904 12.3123L10.3904 17.3123L9.60957 16.6877L13.6096 11.6877L14.3904 12.3123Z" fill="#202020"/>
</svg>
