<svg width="24" height="24" viewBox="0 0 24 24" fill="none" xmlns="http://www.w3.org/2000/svg">
<path d="M14.3904 7.31235C14.5629 7.09672 14.528 6.78207 14.3123 6.60957C14.0967 6.43706 13.7821 6.47202 13.6096 6.68765L14.3904 7.31235ZM10 12L9.60957 11.6877C9.46348 11.8703 9.46348 12.1297 9.60957 12.3123L10 12ZM13.6096 17.3123C13.7821 17.528 14.0967 17.5629 14.3123 17.3904C14.528 17.2179 14.5629 16.9033 14.3904 16.6877L13.6096 17.3123ZM13.6096 6.68765L9.60957 11.6877L10.3904 12.3123L14.3904 7.31235L13.6096 6.68765ZM9.60957 12.3123L13.6096 17.3123L14.3904 16.6877L10.3904 11.6877L9.60957 12.3123Z" fill="#202020"/>
</svg>
