<?xml version="1.0" encoding="UTF-8"?>
<svg id="_레이어_1" data-name="레이어 1" xmlns="http://www.w3.org/2000/svg" viewBox="0 0 16 16">
  <defs>
    <style>
      .cls-1 {
        fill: #fff;
      }

      .cls-2 {
        fill: #231815;
      }
    </style>
  </defs>
  <rect class="cls-1" width="16" height="16" rx="4" ry="4"/>
  <path class="cls-2" d="M5.24,7.23c0-.36,.19-.64,.5-.83,.35,.26,.78,.47,1.15,.54,.52-1.43,1.08-2.82,1.4-3.35,.42-.67,.97-.92,1.57-.92,1.4,0,2.34,.96,2.34,1.99,0,1.2-1.22,2.64-3.9,3.48-.14,.42-.56,1.14-.91,1.64,3.21,.54,3.9,1.51,3.9,2.35,0,.6-.36,1.08-.79,1.2-.88-.75-2.01-1.38-4.39-1.92-.43,.41-.79,.66-1.16,.66-.6,0-1.15-.95-1.15-1.61,0-.56,.32-.83,1.22-.83,.2,0,.43,.01,.7,.04,.28-.53,.5-1,.71-1.49-.68-.1-1.19-.48-1.19-.96Zm3.42-.31c1.26-.5,2.05-1.27,2.05-1.97,0-.37-.42-.67-.9-.67-.16,0-.32,.11-.48,.64l-.67,2Z"/>
</svg>